<?xml version="1.0" encoding="UTF-8" standalone="no"?>
<svg xmlns:rdf="http://www.w3.org/1999/02/22-rdf-syntax-ns#" xmlns="http://www.w3.org/2000/svg" xml:space="preserve" viewBox="0 0 130 66.042915" height="66.043" width="130" version="1.1" y="0px" x="0px" xmlns:cc="http://creativecommons.org/ns#" xmlns:dc="http://purl.org/dc/elements/1.1/"><style type="text/css">
	.st0{fill:#292644;}
	.st1{fill:#FFFFFF;}
	.st2{fill:#EBCD2D;}
	.st3{fill:#2CAB68;}
	.st4{fill:#D83620;}
</style><g transform="translate(-185 -93.629)"><path style="fill:#292644" class="st0" d="m202.23 138.27-7.4308-9.9599 5.2668-5.0321c1.434-1.3558 2.6594-2.3466 4.7974-3.207v-0.0522h-6.075v0.0522c0.73004 0.33895 1.1211 0.86041 1.1211 1.4601 0 0.49537-0.31287 1.0429-0.8604 1.5904l-8.6302 8.3434v-7.5351c0-2.0598 0.31289-3.1288 1.7469-3.8588v-0.0522h-7.1701v0.0522c1.434 0.70396 1.7469 1.799 1.7469 3.8588v13.897c0 2.0598-0.31288 3.1288-1.7469 3.8327v0.0521h7.1701v-0.0521c-1.434-0.70398-1.7469-1.799-1.7469-3.8327v-5.345l1.773-1.7469 5.9186 7.9001c0.54753 0.78219 0.86041 1.2515 0.86041 1.8251 0 0.62576-0.20858 0.88648-0.80825 1.1994v0.0521h7.8219v-0.0521c-1.2515-0.57361-2.5552-1.8251-3.7545-3.3895"/><path style="fill:#292644" class="st0" d="m216.21 140.27c-3.3113 0-5.3189-2.7377-5.3189-6.7529h10.429c0-4.2238-2.0598-7.2483-6.6225-7.2483-4.0152 0-7.4047 3.207-7.4047 7.9001 0 4.9799 3.3895 7.8741 7.4829 7.8741 3.3895 0 5.9186-1.8512 6.5965-5.1885l-0.20858-0.10433c-0.93862 2.3987-2.7898 3.5198-4.9539 3.5198m-1.5644-13.428c2.5552 0 3.0245 2.7637 3.0245 6.0229h-6.7529c0.15644-3.6763 1.7469-6.0229 3.7284-6.0229"/><path style="fill:#292644" class="st0" d="m234.75 140.27c-3.3113 0-5.3189-2.7377-5.3189-6.7529h10.429c0-4.2238-2.0598-7.2483-6.6226-7.2483-4.0152 0-7.4047 3.207-7.4047 7.9001 0 4.9799 3.3895 7.8741 7.483 7.8741 3.3895 0 5.9186-1.8512 6.5965-5.1885l-0.20858-0.10433c-0.93864 2.3987-2.8159 3.5198-4.9539 3.5198m-1.5644-13.428c2.5552 0 3.0245 2.7637 3.0245 6.0229h-6.7529c0.13035-3.6763 1.7469-6.0229 3.7284-6.0229"/><path style="fill:#292644" class="st0" d="m249.04 138.34v-19.842h-5.4232v0.0522c1.434 0.65182 1.8773 1.4601 1.8773 3.3373v16.426c0 2.0598-0.20859 2.6334-1.6426 3.3113v0.0521h6.8572v-0.0521c-1.4601-0.65182-1.6687-1.2254-1.6687-3.2852"/><path style="fill:#292644" class="st0" d="m268.09 136.75c-0.88648 2.3987-2.7637 3.4938-4.9017 3.4938-3.3113 0-5.3189-2.7377-5.3189-6.7529h10.429c0-4.2238-2.0598-7.2483-6.6225-7.2483-4.0152 0-7.4047 3.207-7.4047 7.9001 0 4.98 3.3895 7.8741 7.4829 7.8741 3.3895 0 5.9186-1.8512 6.5965-5.1885l-0.26072-0.0782zm-6.4661-9.9078c2.5552 0 3.0245 2.7637 3.0245 6.0229h-6.7529c0.13036-3.6763 1.7208-6.0229 3.7284-6.0229"/><path style="fill:#292644" class="st0" d="m190.74 155.84c0 0.44323-0.0521 0.80826-0.13037 1.1211-0.0782 0.31287-0.20859 0.57361-0.33895 0.7822-0.13036 0.20857-0.31287 0.39109-0.46932 0.49537-0.1825 0.13037-0.33894 0.20859-0.52145 0.2868-0.18252 0.0782-0.33896 0.10433-0.52147 0.13037-0.15643 0.0261-0.31287 0.0261-0.41716 0.0261-0.13037 0-0.26074 0-0.41717-0.0261s-0.33894-0.0782-0.49539-0.13037c-0.18252-0.0782-0.33895-0.15643-0.52146-0.2868-0.18251-0.13036-0.33894-0.2868-0.46931-0.49537-0.13036-0.20859-0.26074-0.46933-0.33894-0.7822s-0.13038-0.6779-0.13038-1.1211v-5.6057h-0.9647v5.71c0 0.36502 0.0521 0.78219 0.13036 1.1994 0.0782 0.41717 0.26074 0.80826 0.4954 1.1733 0.26073 0.36502 0.59968 0.65182 1.0168 0.88648 0.41715 0.23466 0.99077 0.36502 1.6686 0.36502 0.67791 0 1.2254-0.10433 1.6687-0.36502 0.44324-0.23466 0.7822-0.52146 1.0168-0.88648 0.26073-0.36503 0.41717-0.75612 0.49539-1.1733 0.0782-0.41717 0.13037-0.83434 0.13037-1.1994v-5.71h-0.91256v5.6057z"/><path style="fill:#292644" class="st0" d="m207.19 157.64-4.9539-7.3787h-1.0429v9.1777h1.0429c0-2.4509-0.0261-4.9017-0.0261-7.3526l4.9538 7.3526h1.069v-9.2038h-1.0429v7.4047z"/><rect style="fill:#292644" class="st0" height="9.1777" width="1.0951" y="150.23" x="217.1"/><polygon style="fill:#292644" points="177 252.6 189.8 217.1 185.3 217.1 174.6 247.6 163.9 217.1 159.5 217.1 172 252.6" class="st0" transform="matrix(.26073 0 0 .26073 184.82 93.629)"/><polygon style="fill:#292644" points="225.4 248.8 225.4 236.4 238.4 236.4 238.4 232.9 225.4 232.9 225.4 220.7 241.1 220.7 241.1 217.1 221.2 217.1 221.2 252.4 241.6 252.4 241.9 248.8" class="st0" transform="matrix(.26073 0 0 .26073 184.82 93.629)"/><path style="fill:#292644" class="st0" d="m262.25 154.69c0.33895-0.41716 0.54754-1.0168 0.54754-1.7208 0-0.9647-0.39111-1.6948-0.96471-2.1641-0.65182-0.52145-1.5383-0.75611-2.6334-0.75611-0.80826 0-1.9555 0.10432-2.503 0.18251v9.1777h1.0951v-3.4677h0.8604c0.33896 0 0.67791-0.0261 0.96471-0.0521l2.1119 3.5199h1.2254l-2.2944-3.7806c0.67788-0.18252 1.2254-0.46931 1.5904-0.93863m-3.572 0.3911h-0.86042v-4.0152c0.41717-0.0521 1.0168-0.10432 1.434-0.10432 0.65183 0 1.2776 0.13036 1.7208 0.49538 0.41717 0.31289 0.6779 0.83433 0.6779 1.5644 0 0.65182-0.20857 1.069-0.52146 1.3819-0.62576 0.57361-1.6165 0.6779-2.4509 0.6779"/><path style="fill:#292644" class="st0" d="m275.97 155c-0.80827-0.59969-1.8512-0.75613-2.7116-1.1733-0.62575-0.2868-1.0951-0.67789-1.0951-1.3558 0-0.96471 0.75612-1.5122 2.0598-1.5122 0.70396 0 1.4079 0.15644 2.0076 0.41717l0.10432-0.91256c-0.59969-0.26073-1.2515-0.39109-2.138-0.39109-1.8251 0-3.1288 0.88648-3.1288 2.4508 0 0.99079 0.44323 1.5644 1.069 1.9555 0.96471 0.62575 2.1119 0.73005 2.9462 1.3297 0.41717 0.28679 0.6779 0.70396 0.6779 1.2776 0 1.1211-0.99077 1.6687-2.5812 1.6687-0.8604 0-1.5644-0.13038-2.2162-0.39111l-0.10433 0.93862c0.70397 0.26074 1.4862 0.36503 2.3987 0.36503 1.8773 0 3.6502-0.78219 3.6502-2.7116 0.0261-0.9647-0.36501-1.5383-0.93863-1.9555"/><rect style="fill:#292644" class="st0" height="9.1777" width="1.0951" y="150.23" x="285.25"/><polygon style="fill:#292644" points="435.4 252.4 435.4 220.9 446.4 220.9 446.7 217.1 420.3 217.1 420.3 220.9 431.2 220.9 431.2 252.4" class="st0" transform="matrix(.26073 0 0 .26073 184.82 93.629)"/><polygon style="fill:#292644" points="475.7 217.1 470.8 217.1 482.7 238.7 482.7 252.4 486.9 252.4 486.9 238.6 499.3 217.1 494.6 217.1 484.9 234.7" class="st0" transform="matrix(.26073 0 0 .26073 184.82 93.629)"/><rect style="fill:#ffffff" class="st1" height="8.5519" width="29.045" y="95.584" x="283.22"/><path style="fill:#292644" class="st0" d="m280.56 93.629v40.544l17.234 7.8741 17.208-7.8741v-40.544h-34.442zm29.358 3.4938 0.57361 0.5736-0.65183 0.65182-0.57361-0.57361 0.65183-0.65182zm-3.6502 0.2868 1.4862 1.4862-0.5736 0.5736-1.4862-1.4862 0.57361-0.57361zm2.0076 1.3558 0.5736 0.5736-1.1733 1.1733-0.57361-0.5736 1.1733-1.1733zm-6.7268-2.1901 0.6779 0.6779-0.78219 0.78219c-0.20859-0.13037-0.52146-0.31287-0.91256-0.46931l1.0168-0.99077zm-7.4047 0.18251 1.0429 1.0429 0.75611 0.75611 1.4862 1.4862-0.6779 0.70397-1.799-1.799-0.70397-0.70397-0.78219-0.78219 0.6779-0.70397zm-6.4661-0.44324 0.75613 1.1733-0.62576 3.1809h-0.31287l-0.59969-3.207 0.78219-1.1472zm-2.8941 3.5199 1.1733-1.5122 0.83434 0.39109 0.54754 1.9816h-0.33895l-0.3911-1.1994-0.31286 0.44324-1.5122-0.10432zm3.1027 2.4248v0.44323l-0.20859 0.33896-0.26072-0.36502v-0.3911h-0.6779l0.62576-0.62575h0.62575l0.62576 0.62575h-0.73006zm0.4954-0.78219h-1.4601l-0.33896-0.31288 0.33896-0.31288h1.4862l0.31287 0.31288-0.33894 0.31288zm0.62574-1.5905-0.31288-0.44324-0.39109 1.1994h-0.33894l0.54752-1.9815 0.83433-0.39109 1.1994 1.5122-1.5383 0.10432zm8.7345 1.8773-0.2868 0.2868c-0.46932 0.46931-1.0951 0.73005-1.773 0.73005-1.3819 0-2.503-1.1211-2.503-2.503 0-0.73005 0.26073-1.3558 0.75612-1.799l0.6779 0.6779c-0.31288 0.26073-0.46931 0.62576-0.46931 1.0951 0 0.86041 0.67789 1.5383 1.5383 1.5383 0.41717 0 0.80826-0.15645 1.0951-0.44325l0.28682-0.2868 0.67789-0.6779 1.4601-1.4601c0.49537 0.13037 0.83433 0.2868 0.99077 0.36503l-1.7469 1.7469-0.70396 0.73005zm2.0598 1.0168c-0.65182 0-1.2776-0.26074-1.7469-0.70397l0.67789-0.67791c0.28681 0.26074 0.65182 0.41717 1.0429 0.41717 0.83433 0 1.5383-0.67789 1.5383-1.5383 0-0.41717-0.13037-0.70397-0.46931-1.0168-0.0261-0.02611-0.0522-0.05211-0.0782-0.07822-0.0261-0.02611-0.0782-0.05211-0.13037-0.07822h-0.0261c-0.31288-0.20857-0.78219-0.36502-1.0951-0.46931-0.0261 0-0.0521-0.02611-0.0782-0.02611-0.10432-0.02611-0.15645-0.05211-0.20858-0.05211-0.75612-0.18251-1.7469-0.2868-2.868-0.05211l-0.78219-0.78219c1.9555-0.54753 3.6763-0.23466 4.6671 0.13036 0.23465 0.10432 0.70396 0.31288 1.0168 0.52146 0.73004 0.54754 1.0168 1.1472 1.0168 1.9294 0.0261 1.3558-1.0951 2.4769-2.4769 2.4769m6.2054-0.59968-0.57362-0.5736 0.65183-0.65183 0.57361 0.5736-0.65182 0.65183zm1.9555 0.23466-2.7377-2.7377 0.88649-0.88648 0.59967 0.59968-0.31287 0.31288 1.5644 1.5644 0.31288-0.31288 0.59968 0.59968-0.91256 0.86041zm1.6687-0.49538-1.4862-1.4862 0.57361-0.57361 1.4862 1.4862-0.57361 0.57362zm0.18252-1.3558-0.59969-0.59969 0.31288-0.31288-1.5644-1.5644-0.31287 0.31288-0.59968-0.59968 0.88647-0.88649 2.7377 2.7377-0.8604 0.91256z"/><polygon style="fill:#ebcd2d" points="494.7 97.9 438.9 122.8 494.7 148.2" class="st2" transform="matrix(.26073 0 0 .26073 184.82 93.629)"/><polygon style="fill:#ebcd2d" points="428.7 66.8 371.9 40.9 371.9 92.2" class="st2" transform="matrix(.26073 0 0 .26073 184.82 93.629)"/><polygon style="fill:#2cab68" points="371.9 97.1 371.9 152.5 433.3 180.6 494 152.9" class="st3" transform="matrix(.26073 0 0 .26073 184.82 93.629)"/><polygon style="fill:#d83620" points="494.7 42.2 377.4 94.7 433.5 120.3 494.7 93" class="st4" transform="matrix(.26073 0 0 .26073 184.82 93.629)"/><path style="fill:#292644" class="st0" d="m294.04 131.96s0.88648-0.65182 3.0766-0.70396c1.6426-0.0261 2.2944 0.0522 2.2944 0.0522l0.15643-0.93865-0.33895-0.36501-3.6502 0.91255c-0.0261-0.0261-0.91257 0.41717-1.5383 1.0429"/><path style="fill:#ffffff" class="st1" d="m297.9 130.97c0.73005 0.0261 1.0429 0.0261 1.1733 0.0261 0.13038-0.57361 0.13038-1.0168 0.13038-1.0168h0.0261s-2.0076-0.0261-3.1809 0.52146c-1.1733 0.54753-2.0076 1.4601-2.0076 1.4601s1.0951-1.0429 3.8588-0.99079"/><path style="fill:#292644" class="st0" d="m300.61 129.97 0.36502 0.49537s-0.0261 1.5905-0.93862 2.9723c-0.91256 1.3558-1.5644 2.4248-1.9294 3.8849-0.13037 0.4954-0.20859 1.5644-0.20859 1.5644h-1.1211l-0.26072-0.33896 1.2254-3.2852 2.0598-3.3895"/><path style="fill:#ffffff" class="st1" d="m300.61 129.97s0 0.365-0.20859 1.4079c-0.20857 1.1211-0.99076 2.1641-1.8772 3.5981-1.069 1.773-1.0951 3.572-1.0951 3.572l-0.93863 0.0261s-0.0522-0.78218 0.33895-2.0598c0.3911-1.3297 1.3037-2.6334 2.0337-3.7024 0.75613-1.1211 0.83434-2.8159 0.83434-2.8159h0.91256z"/><polyline style="fill:#292644" points="412.7 100.7 413.1 103.1 433.2 103 453.5 103.1 453.9 100.8 429.9 92.6" class="st0" transform="matrix(.26073 0 0 .26073 184.82 93.629)"/><path style="fill:#ffffff" class="st1" d="m297.79 115.35c0.26074-0.33896 0.83434-0.67791 2.138-0.36502 1.5122 0.33894 2.5291 0.41717 2.5291 0.41717l0.70398 4.4845-0.78219-0.0522c-0.7822-0.0521-2.138-0.3911-3.0506-0.57362-0.91255-0.20858-1.5383 0.41717-1.5383 0.41717-0.0261-0.0261-0.62575-0.59968-1.5383-0.41717-0.91256 0.20859-2.2944 0.52148-3.0505 0.57362l-0.78218 0.0522 0.70396-4.4845s0.99078-0.0782 2.5291-0.41717c1.3036-0.31289 1.8773 0.0261 2.1641 0.39109"/></g></svg>
